<svg width="24" height="24" viewBox="0 0 24 24" fill="none" xmlns="http://www.w3.org/2000/svg">
<g clip-path="url(#clip0_27_881)">
<path d="M18.2222 6.52381H16.4444C16.4444 4.02667 14.4533 2 12 2C9.54667 2 7.55556 4.02667 7.55556 6.52381H5.77778C4.8 6.52381 4 7.3381 4 8.33333V19.1905C4 20.1857 4.8 21 5.77778 21H18.2222C19.2 21 20 20.1857 20 19.1905V8.33333C20 7.3381 19.2 6.52381 18.2222 6.52381ZM12 3.80952C13.4756 3.80952 14.6667 5.0219 14.6667 6.52381H9.33333C9.33333 5.0219 10.5244 3.80952 12 3.80952ZM18.2222 19.1905H5.77778V8.33333H18.2222V19.1905ZM12 11.9524C10.5244 11.9524 9.33333 10.74 9.33333 9.2381H7.55556C7.55556 11.7352 9.54667 13.7619 12 13.7619C14.4533 13.7619 16.4444 11.7352 16.4444 9.2381H14.6667C14.6667 10.74 13.4756 11.9524 12 11.9524Z" fill="#F6EE26"/>
</g>
<defs>
<clipPath id="clip0_27_881">
<rect width="24" height="24" fill="white"/>
</clipPath>
</defs>
</svg>
